<svg width="140" height="16" viewBox="0 0 140 16" fill="none" xmlns="http://www.w3.org/2000/svg">
<g id="Layer_1" clip-path="url(#clip0_2915_3588)">
<path id="Vector" d="M63.2387 8.00004C63.2387 5.50198 63.2387 3.00393 63.2387 0.50328C63.2387 0.230906 63.2655 0.199778 63.5579 0.199778C65.6531 0.199778 67.7483 0.191996 69.8435 0.210154C70.7261 0.217936 71.6114 0.256847 72.4726 0.482528C74.2432 0.949454 75.3431 2.04154 75.6194 3.83402C75.716 4.45399 75.7026 5.06619 75.4772 5.65244C75.2009 6.37877 74.6992 6.94427 74.0205 7.3645C73.9669 7.39822 73.9105 7.42676 73.8569 7.46048C73.6476 7.59796 73.653 7.69394 73.873 7.80289C75.1714 8.44621 75.8931 9.48382 75.9843 10.8664C76.0755 12.2309 75.7106 13.4786 74.6295 14.4514C73.9964 15.0221 73.2291 15.3671 72.3921 15.5331C71.7563 15.6576 71.1017 15.7562 70.4552 15.764C68.1803 15.7925 65.9053 15.7821 63.6304 15.7795C63.1394 15.7795 63.2387 15.7795 63.2387 15.4008C63.236 12.9339 63.2387 10.4644 63.2387 7.99744V8.00004ZM68.6551 9.15438C68.0005 9.15438 67.3486 9.16216 66.694 9.14919C66.4928 9.1466 66.4499 9.21664 66.4526 9.39563C66.4606 10.4981 66.4553 11.598 66.4553 12.7004C66.4553 13.0039 66.4901 13.048 66.8013 13.0506C68.089 13.061 69.3794 13.0792 70.6671 13.0584C70.9891 13.0532 71.3351 12.9676 71.6195 12.8249C72.266 12.4981 72.5558 11.9326 72.6094 11.2426C72.6979 10.1349 71.9629 9.26074 70.8066 9.16476C70.0957 9.1051 69.3714 9.15438 68.6551 9.15438ZM68.6041 6.51366C68.6041 6.51366 68.6041 6.51366 68.6041 6.51106C69.2077 6.51106 69.8087 6.52144 70.4096 6.51106C71.4022 6.4929 72.1292 5.93519 72.2553 5.04025C72.3411 4.42805 72.266 3.86255 71.7563 3.41638C71.3593 3.07137 70.8898 2.92351 70.3667 2.92092C69.1568 2.91573 67.9442 2.91833 66.7343 2.92092C66.4982 2.92092 66.458 2.96502 66.458 3.19589C66.458 3.89109 66.458 4.58629 66.458 5.28149C66.458 5.59018 66.4553 5.89628 66.458 6.20497C66.4633 6.44881 66.5277 6.51366 66.7772 6.51366C67.3862 6.51625 67.9951 6.51366 68.6041 6.51366Z" fill="#276770"/>
<path id="Vector_2" d="M46.6135 8.01036C46.6135 5.50452 46.6135 3.00128 46.6135 0.495441C46.6135 0.233444 46.6162 0.215285 46.8845 0.212691C47.6786 0.207503 48.4726 0.212691 49.2667 0.225662C49.3499 0.225662 49.4652 0.293106 49.5108 0.360551C50.9005 2.3813 52.2848 4.40724 53.6691 6.43318C54.3719 7.46042 55.0721 8.49025 55.7777 9.51749C55.8501 9.62385 55.9413 9.72242 56.0379 9.81062C56.1452 9.9066 56.223 9.86509 56.2525 9.73539C56.2659 9.67573 56.2659 9.61347 56.2659 9.55121C56.2659 6.59142 56.2632 3.62903 56.2606 0.669241C56.2606 0.354499 56.4224 0.197992 56.7461 0.199721C57.5268 0.199721 58.3101 0.199721 59.0908 0.202315C59.4771 0.202315 59.4798 0.210097 59.512 0.573262C59.5254 0.71334 59.5254 0.856012 59.5254 0.99609C59.5254 5.49414 59.5254 9.99479 59.5254 14.4928C59.5254 14.8379 59.5147 15.1829 59.5174 15.5253C59.5174 15.7043 59.4369 15.7821 59.2518 15.7821C58.4443 15.7769 57.6368 15.7769 56.8293 15.7613C56.7488 15.7613 56.6415 15.6861 56.5932 15.6161C55.5791 14.1738 54.5731 12.7263 53.5644 11.2788C52.4404 9.67054 51.3163 8.06224 50.1896 6.45394C50.1574 6.40724 50.1252 6.35796 50.0823 6.32683C49.975 6.24641 49.8489 6.30089 49.8355 6.428C49.8301 6.47728 49.8328 6.52657 49.8328 6.57586C49.8328 9.49933 49.8328 12.4228 49.8328 15.3463C49.8328 15.7899 49.8328 15.7847 49.3767 15.7795C48.6202 15.7743 47.8637 15.7743 47.1071 15.7717C46.7727 15.7717 46.6055 15.6126 46.6055 15.2944C46.6055 12.8638 46.6055 10.4332 46.6055 7.99998L46.6135 8.01036Z" fill="#276770"/>
<path id="Vector_3" d="M111.337 8.00004C111.337 5.55646 111.337 3.11288 111.337 0.669302C111.337 0.358018 111.501 0.203241 111.828 0.20497C112.494 0.20497 113.162 0.210158 113.827 0.20497C114.05 0.20497 114.197 0.269821 114.326 0.46178C115.367 1.99745 116.421 3.52533 117.467 5.05841C118.506 6.57332 119.538 8.09343 120.577 9.60834C120.654 9.72248 120.716 9.90147 120.893 9.85478C121.07 9.80808 121.03 9.62391 121.03 9.48642C121.03 6.51885 121.027 3.55387 121.025 0.586293C121.025 0.223129 121.035 0.210158 121.408 0.207564C122.221 0.20497 123.037 0.207564 123.85 0.207564C124.228 0.207564 124.257 0.241287 124.257 0.596669C124.257 5.57721 124.257 10.5552 124.263 15.5357C124.263 15.7095 124.196 15.7847 124.019 15.7847C123.211 15.7821 122.404 15.7795 121.596 15.7795C121.459 15.7795 121.379 15.7199 121.304 15.6109C120.212 14.0338 119.117 12.4592 118.02 10.882C117.105 9.56684 116.19 8.25426 115.273 6.94168C115.163 6.78344 115.056 6.62002 114.93 6.47475C114.868 6.40471 114.763 6.3658 114.677 6.31392C114.645 6.39952 114.589 6.48253 114.586 6.56813C114.581 6.83791 114.6 7.11029 114.6 7.38007C114.6 9.70692 114.6 12.0338 114.6 14.3606C114.6 14.7238 114.6 15.0869 114.6 15.4501C114.597 15.7432 114.543 15.7899 114.237 15.7899C113.366 15.7899 112.494 15.7873 111.622 15.7795C111.34 15.7795 111.332 15.764 111.332 15.4968C111.332 12.9987 111.332 10.4981 111.332 8.00004H111.337Z" fill="#276770"/>
<path id="Vector_4" d="M92.5278 8C92.4902 8.86122 92.4849 9.73022 92.4097 10.594C92.2193 12.8197 91.0791 14.4332 88.9651 15.3956C88.2489 15.7224 87.4896 15.8703 86.709 15.9429C85.6627 16.0389 84.6191 16.0259 83.5943 15.8003C81.8264 15.4112 80.4314 14.5058 79.5381 12.9546C79.1598 12.2957 78.9694 11.572 78.8567 10.8353C78.7896 10.3943 78.7735 9.94293 78.7708 9.49417C78.7628 8.30091 78.7306 7.10506 78.7842 5.9144C78.8728 3.92478 79.6722 2.28275 81.4321 1.12322C82.6232 0.334633 83.9404 -0.0207492 85.373 3.02802e-06C86.0061 0.0103792 86.6446 0.0207553 87.267 0.106358C88.3481 0.254218 89.2924 0.721144 90.1563 1.35668C91.562 2.3917 92.2676 3.7821 92.4097 5.45007C92.4822 6.29572 92.4902 7.14397 92.5278 8ZM89.2361 7.85474C89.22 7.85474 89.2012 7.85214 89.1851 7.84955C89.1851 7.78729 89.1851 7.72763 89.1851 7.66537C89.1932 6.75746 89.1449 5.85992 88.8095 4.99611C88.4608 4.09858 87.8438 3.4786 86.8673 3.20882C86.092 2.99352 85.322 2.98055 84.536 3.16991C83.7204 3.36446 83.1276 3.81842 82.7251 4.51362C82.3388 5.18548 82.1832 5.92218 82.1537 6.67445C82.1189 7.50195 82.1269 8.33463 82.1484 9.16213C82.1671 9.8729 82.3174 10.5629 82.6205 11.2192C82.9988 12.0311 83.6212 12.5733 84.5065 12.8301C85.0806 12.9961 85.6708 13.0013 86.2583 12.9339C87.2884 12.8145 88.0879 12.3294 88.5493 11.4319C88.7747 10.9909 88.9437 10.5058 89.0268 10.0208C89.1476 9.3074 89.1717 8.58107 89.2361 7.85992V7.85474Z" fill="#276770"/>
<path id="Vector_5" d="M127.414 7.99224C127.414 5.51234 127.414 3.03244 127.414 0.549954C127.414 0.223106 127.436 0.19976 127.768 0.19976C129.421 0.19976 131.076 0.18679 132.729 0.210136C133.721 0.223106 134.716 0.259423 135.682 0.518826C137.898 1.11545 139.28 2.46176 139.773 4.64593C139.996 5.62648 139.999 6.61221 139.999 7.60054C139.999 8.58368 139.999 9.572 139.902 10.55C139.781 11.7614 139.422 12.9131 138.588 13.8781C137.885 14.6926 136.965 15.1518 135.924 15.4319C134.985 15.6861 134.027 15.7769 133.056 15.7769C131.28 15.7769 129.504 15.7769 127.731 15.7769C127.419 15.7769 127.414 15.7666 127.414 15.4838C127.414 12.9858 127.414 10.4851 127.414 7.98705V7.99224ZM130.647 7.95852C130.647 9.4423 130.647 10.9235 130.647 12.4073C130.647 12.6952 130.674 12.716 130.963 12.716C131.72 12.716 132.476 12.716 133.23 12.716C133.791 12.716 134.341 12.6356 134.877 12.4825C135.411 12.3295 135.827 12.0234 136.152 11.585C136.565 11.0273 136.677 10.3813 136.718 9.73283C136.796 8.48251 136.825 7.227 136.691 5.97408C136.618 5.31001 136.398 4.69522 135.905 4.21014C135.406 3.71986 134.778 3.45527 134.073 3.35929C132.994 3.21403 131.913 3.25294 130.832 3.27888C130.66 3.28407 130.641 3.37486 130.641 3.50975C130.644 4.99353 130.641 6.47473 130.641 7.95852H130.647Z" fill="#276770"/>
<path id="Vector_6" d="M95.3164 5.60573C95.3164 3.91183 95.3164 2.22052 95.3164 0.526616C95.3164 0.243867 95.3271 0.217926 95.6115 0.215332C96.5719 0.204956 97.535 0.202362 98.4954 0.20755C98.761 0.20755 98.7744 0.241273 98.7744 0.4903C98.7744 3.49419 98.7664 6.49808 98.7744 9.50197C98.7744 9.98965 98.8173 10.4877 98.9139 10.9676C99.1205 11.9871 99.8475 12.6174 100.923 12.7938C101.672 12.9157 102.404 12.8768 103.12 12.633C103.936 12.3528 104.395 11.7614 104.566 10.9728C104.658 10.5603 104.687 10.1323 104.69 9.7095C104.701 6.68226 104.695 3.65243 104.698 0.62519C104.698 0.228302 104.711 0.212738 105.132 0.210144C105.999 0.204956 106.863 0.204956 107.729 0.210144C108.185 0.210144 108.183 0.217926 108.183 0.653724C108.183 3.7925 108.188 6.93129 108.183 10.0701C108.183 11.3697 107.901 12.6044 107.107 13.681C106.275 14.8068 105.124 15.502 103.732 15.8055C102.713 16.026 101.677 16.0415 100.636 15.9378C99.8421 15.8574 99.0883 15.6706 98.3828 15.3152C96.9529 14.5941 96.0085 13.502 95.5793 11.9922C95.3888 11.3204 95.3271 10.6382 95.3218 9.94815C95.3137 8.50068 95.3191 7.0558 95.3191 5.60833L95.3164 5.60573Z" fill="#276770"/>
<path id="Vector_7" d="M21.4577 15.8314C20.8434 15.8314 20.2264 15.8314 19.612 15.8314C19.2552 15.8314 19.2472 15.8236 19.1345 15.5045C18.1687 12.7263 17.203 9.94812 16.2318 7.1725C15.4538 4.94941 14.6732 2.72633 13.8925 0.50324C13.8147 0.280153 13.8335 0.230866 14.0749 0.225678C14.92 0.210114 15.765 0.210114 16.6128 0.204926C16.7657 0.204926 16.9213 0.212708 17.0742 0.212708C17.2674 0.212708 17.3612 0.298311 17.4229 0.479893C17.981 2.10635 18.5443 3.73281 19.1131 5.35668C19.6496 6.88716 20.1942 8.41504 20.7334 9.94293C20.9105 10.4436 21.0741 10.9468 21.2565 11.4449C21.2861 11.5253 21.3773 11.5824 21.439 11.6524C21.506 11.5824 21.608 11.5227 21.6375 11.4371C22.1982 9.84954 22.7508 8.2594 23.3061 6.66926C23.7944 5.26589 24.2853 3.86251 24.7736 2.45914C25.0097 1.77691 25.2484 1.09727 25.4791 0.412448C25.5274 0.267182 25.6052 0.197144 25.7635 0.197144C26.732 0.199738 27.7004 0.197144 28.6662 0.210114C29.0579 0.215302 29.0713 0.238648 28.9506 0.586249C28.5938 1.62386 28.2316 2.65888 27.8694 3.6965C27.1397 5.78729 26.4127 7.87808 25.6803 9.96627C25.0258 11.834 24.3658 13.7017 23.722 15.572C23.6522 15.7743 23.5449 15.8418 23.3383 15.8392C22.7106 15.8314 22.0828 15.8392 21.4551 15.8392C21.4551 15.8366 21.4551 15.834 21.4551 15.8314H21.4577Z" fill="#276770"/>
<path id="Vector_8" d="M37.2398 15.7406C39.0077 15.7406 40.7783 15.7406 42.5462 15.7406C42.8467 15.7406 42.8682 15.7146 42.8682 15.4189C42.8708 14.6796 42.8789 13.9429 42.8682 13.2036C42.8601 12.6303 42.9701 12.6459 42.2887 12.6459C39.8796 12.6459 37.4679 12.6459 35.0588 12.6459C34.8093 12.6459 34.8012 12.6355 34.8012 12.3943C34.8012 11.5642 34.8012 10.7315 34.8012 9.90139C34.8012 9.56676 34.8039 9.56676 35.1554 9.56676C37.6047 9.56676 40.054 9.56676 42.5006 9.56157C42.836 9.56157 42.8655 9.53304 42.8655 9.21397C42.8682 8.45132 42.8708 7.68868 42.8655 6.92344C42.8655 6.44095 42.8601 6.44095 42.3531 6.44095C38.879 6.44095 35.4048 6.44095 31.9307 6.43835C31.5686 6.43835 31.5391 6.46689 31.5391 6.81708C31.5391 9.62383 31.5391 12.4306 31.5391 15.2373C31.5391 15.5849 31.7197 15.7587 32.081 15.7587L37.2345 15.7432L37.2398 15.7406Z" fill="#276770"/>
<path id="Vector_9" d="M5.70784 15.7588C3.99091 15.7588 2.27129 15.7588 0.554352 15.7588C0.187715 15.7588 0.00439638 15.5859 0.00439638 15.24C0.00439638 12.4592 0.00439638 9.6758 0.00439638 6.895C0.00439638 6.83274 0.00707909 6.77308 0.00439638 6.71082C-0.00365175 6.53443 0.0875605 6.44882 0.267302 6.44623C0.323639 6.44623 0.382659 6.44104 0.438996 6.44104C3.9453 6.44104 7.4516 6.44104 10.9552 6.44104C11.2932 6.44104 11.3013 6.44623 11.304 6.76789C11.3093 7.59279 11.312 8.41769 11.3174 9.2426C11.3174 9.52794 11.2879 9.56166 10.9901 9.56166C8.52201 9.56166 6.05391 9.56166 3.5885 9.56166C3.25316 9.56166 3.23706 9.56166 3.23438 9.88592C3.22633 10.7056 3.22902 11.5228 3.23438 12.3425C3.23438 12.5967 3.28535 12.6382 3.55899 12.6382C6.03245 12.6408 8.50591 12.6434 10.9821 12.646C11.3067 12.646 11.3093 12.646 11.3093 12.9624C11.3147 13.7925 11.3174 14.6252 11.3228 15.4553C11.3228 15.7303 11.3147 15.7458 11.0169 15.7458C9.24902 15.7458 7.47843 15.7458 5.71053 15.7458C5.71053 15.751 5.71053 15.7536 5.71053 15.7588H5.70784Z" fill="#276770"/>
<path id="Vector_10" d="M37.2089 0.2724C38.9848 0.2724 40.7608 0.2724 42.534 0.2724C42.8667 0.2724 42.8694 0.277588 42.8694 0.588872C42.8694 1.39562 42.8694 2.20236 42.8667 3.00651C42.8667 3.33595 42.8479 3.35411 42.5099 3.35411C39.2611 3.35411 36.0124 3.35671 32.7609 3.35671C32.447 3.35671 32.1332 3.36189 31.8193 3.35671C31.5805 3.35152 31.543 3.31001 31.543 3.08174C31.543 2.24387 31.543 1.40859 31.543 0.570714C31.543 0.293152 31.5671 0.267212 31.8649 0.267212C33.6462 0.267212 35.4275 0.267212 37.2089 0.267212V0.2724Z" fill="#276770"/>
<path id="Vector_11" d="M5.70345 0.269806C7.48477 0.269806 9.26609 0.269806 11.0474 0.269806C11.3023 0.269806 11.3076 0.269806 11.3103 0.508457C11.3157 1.37486 11.3184 2.24387 11.3184 3.11027C11.3184 3.3178 11.2754 3.35411 11.0555 3.35411C7.51159 3.35411 3.96773 3.35411 0.423869 3.35411C0.378262 3.35411 0.335339 3.35411 0.289733 3.35152C0.037558 3.33855 0.00536542 3.30742 0.00536542 3.06617C0.00536542 2.22571 0.0107308 1.38265 0 0.539585C0 0.345033 0.0724332 0.274994 0.260223 0.274994C0.496302 0.274994 0.735063 0.267212 0.971142 0.267212C2.54858 0.267212 4.12333 0.267212 5.70076 0.267212L5.70345 0.269806Z" fill="#276770"/>
</g>
<defs>
<clipPath id="clip0_2915_3588">
<rect width="140" height="16" fill="white"/>
</clipPath>
</defs>
</svg>
